<svg xmlns="http://www.w3.org/2000/svg" xmlns:xlink="http://www.w3.org/1999/xlink" viewBox="0 0 430 430" width="430" height="430" preserveAspectRatio="xMidYMid meet" style="width: 100%; height: 100%; transform: translate3d(0px, 0px, 0px); content-visibility: visible;"><defs><clipPath id="__lottie_element_2"><rect width="430" height="430" x="0" y="0"/></clipPath><clipPath id="__lottie_element_4"><path d="M0,0 L430,0 L430,430 L0,430z"/></clipPath></defs><g clip-path="url(#__lottie_element_2)"><g clip-path="url(#__lottie_element_4)" transform="matrix(1,0,0,1,0,0)" opacity="1" style="display: block;"><g transform="matrix(1,0,0,1,295.0899963378906,111.03500366210938)" opacity="1" style="display: block;"><g opacity="1" transform="matrix(1,0,0,1,0,0)"><path class="tertiary" fill="rgb(242,76,0)" fill-opacity="1" d=" M-23.4060001373291,-3.1549999713897705 C-23.4060001373291,-3.1549999713897705 -23.4060001373291,-37.87900161743164 -23.4060001373291,-37.87900161743164 C-23.4060001373291,-39.5359992980957 -22.062999725341797,-40.87900161743164 -20.4060001373291,-40.87900161743164 C-20.4060001373291,-40.87900161743164 20.4060001373291,-40.87900161743164 20.4060001373291,-40.87900161743164 C22.062999725341797,-40.87900161743164 23.4060001373291,-39.5359992980957 23.4060001373291,-37.87900161743164 C23.4060001373291,-37.87900161743164 23.4060001373291,40.87900161743164 23.4060001373291,40.87900161743164"/></g></g><g transform="matrix(1,0,0,1,283.1839904785156,89.74800109863281)" opacity="0.5" style="mix-blend-mode: multiply; display: block;"><g opacity="1" transform="matrix(1,0,0,1,0,0)" style="mix-blend-mode: multiply;"><path class="tertiary" fill="rgb(242,76,0)" fill-opacity="1" d=" M8.5,19.591999053955078 C8.5,19.591999053955078 8.5,-16.475000381469727 8.5,-16.475000381469727 C8.5,-18.195999145507812 9.843000411987305,-19.591999053955078 11.5,-19.591999053955078 C11.5,-19.591999053955078 -8.5,-19.591999053955078 -8.5,-19.591999053955078 C-10.156999588012695,-19.591999053955078 -11.5,-18.249000549316406 -11.5,-16.591999053955078 C-11.5,-16.591999053955078 -11.5,18.131999969482422 -11.5,18.131999969482422"/></g></g><g transform="matrix(1,0,0,1,148.83200073242188,215)" opacity="1" style="display: block;"><g opacity="1" transform="matrix(1,0,0,1,0,0)"><path class="secondary" fill="rgb(235,230,239)" fill-opacity="1" d=" M-63.316001892089844,160.27699279785156 C-63.316001892089844,160.27699279785156 190.8159942626953,160.05499267578125 190.8159942626953,160.05499267578125 C190.8159942626953,160.05499267578125 66.31600189208984,-160.27699279785156 66.31600189208984,-160.27699279785156 C66.31600189208984,-160.27699279785156 -66.31600189208984,-35.499000549316406 -66.31600189208984,-35.499000549316406 C-66.31600189208984,-35.499000549316406 -66.31600189208984,157.27699279785156 -66.31600189208984,157.27699279785156 C-66.31600189208984,158.9340057373047 -64.9729995727539,160.27699279785156 -63.316001892089844,160.27699279785156z"/></g></g><g transform="matrix(1,0,0,1,281.4939880371094,215)" opacity="1" style="display: block;"><g opacity="1" transform="matrix(1,0,0,1,0,0)"><path class="secondary" fill="rgb(235,230,239)" fill-opacity="1" d=" M-66.31600189208984,-160.27699279785156 C-66.31600189208984,-160.27699279785156 -125.31600189208984,160.05499267578125 -125.31600189208984,160.05499267578125 C-125.31600189208984,160.05499267578125 63.316001892089844,160.27699279785156 63.316001892089844,160.27699279785156 C64.9729995727539,160.27699279785156 66.31600189208984,158.9340057373047 66.31600189208984,157.27699279785156 C66.31600189208984,157.27699279785156 66.31600189208984,-35.499000549316406 66.31600189208984,-35.499000549316406 C66.31600189208984,-35.499000549316406 -66.31600189208984,-160.27699279785156 -66.31600189208984,-160.27699279785156z"/></g></g><g transform="matrix(1,0,0,1,148.83200073242188,215)" opacity="0.5" style="mix-blend-mode: multiply; display: block;"><g opacity="1" transform="matrix(1,0,0,1,0,0)" style="mix-blend-mode: multiply;"><path class="secondary" fill="rgb(235,230,239)" fill-opacity="1" d=" M-46.316001892089844,-15.49899959564209 C-46.316001892089844,-15.49899959564209 82.40899658203125,-137.3679962158203 82.40899658203125,-137.3679962158203 C82.40899658203125,-137.3679962158203 66.31600189208984,-160.27699279785156 66.31600189208984,-160.27699279785156 C66.31600189208984,-160.27699279785156 -66.31600189208984,-35.499000549316406 -66.31600189208984,-35.499000549316406 C-66.31600189208984,-35.499000549316406 -66.31600189208984,157.27699279785156 -66.31600189208984,157.27699279785156 C-66.31600189208984,158.9340057373047 -64.9729995727539,160.27699279785156 -63.316001892089844,160.27699279785156 C-63.316001892089844,160.27699279785156 -46.316001892089844,160.27699279785156 -46.316001892089844,160.27699279785156 C-46.316001892089844,160.27699279785156 -46.316001892089844,-15.49899959564209 -46.316001892089844,-15.49899959564209z"/></g></g><g transform="matrix(1,0,0,1,215.1490020751953,127.4020004272461)" opacity="1" style="display: block;"><g opacity="1" transform="matrix(1,0,0,1,0,0)"><path class="tertiary" fill="rgb(242,76,0)" fill-opacity="1" d=" M148.7100067138672,84.36299896240234 C148.7100067138672,84.36299896240234 0.02800000086426735,-55.518001556396484 0.02800000086426735,-55.518001556396484 C0.02800000086426735,-55.518001556396484 -148.71400451660156,84.36499786376953 -148.71400451660156,84.36499786376953 C-149.92100524902344,85.5 -151.82000732421875,85.44200134277344 -152.9550018310547,84.23500061035156 C-152.9550018310547,84.23500061035156 -165.9709930419922,70.39399719238281 -165.9709930419922,70.39399719238281 C-167.1060028076172,69.18699645996094 -167.04800415039062,67.28900146484375 -165.84100341796875,66.15399932861328 C-165.84100341796875,66.15399932861328 -8.534000396728516,-81.78399658203125 -8.534000396728516,-81.78399658203125 C-3.7219998836517334,-86.31099700927734 3.7820000648498535,-86.30999755859375 8.595000267028809,-81.78299713134766 C8.595000267028809,-81.78299713134766 165.84100341796875,66.15399932861328 165.84100341796875,66.15399932861328 C167.04800415039062,67.28900146484375 167.1060028076172,69.18800354003906 165.9709930419922,70.3949966430664 C165.9709930419922,70.3949966430664 152.9510040283203,84.23400115966797 152.9510040283203,84.23400115966797 C151.8159942626953,85.44100189208984 149.91700744628906,85.49800109863281 148.7100067138672,84.36299896240234z"/></g></g><g transform="matrix(0.8399999737739563,0,0,0.8399999737739563,215,327)" opacity="0.07259642156798592" style="display: none;"><g opacity="1" transform="matrix(1,0,0,1,-0.5,-0.5)"><path stroke-linecap="round" stroke-linejoin="round" fill-opacity="0" class="primary" stroke="rgb(8,168,138)" stroke-opacity="1" stroke-width="7" d=" M-117.86199951171875,-162.23399353027344 C-84.76699829101562,-186.32899475097656 -44.029998779296875,-200.55099487304688 0,-200.55099487304688 C0,-200.55099487304688 0,-200.55099487304688 0,-200.55099487304688 C44.029998779296875,-200.55099487304688 84.76699829101562,-186.32899475097656 117.86199951171875,-162.23399353027344"/></g></g><g transform="matrix(0.8399999737739563,0,0,0.8399999737739563,215,327)" opacity="0.07360033993206556" style="display: none;"><g opacity="1" transform="matrix(1,0,0,1,-0.5,-0.5)"><path stroke-linecap="round" stroke-linejoin="round" fill-opacity="0" class="primary" stroke="rgb(8,168,138)" stroke-opacity="1" stroke-width="7" d=" M-117.8550033569336,-162.22500610351562 C-84.76200103759766,-186.31900024414062 -44.02799987792969,-200.5399932861328 0,-200.5399932861328 C0,-200.5399932861328 0,-200.5399932861328 0,-200.5399932861328 C44.02799987792969,-200.5399932861328 84.76200103759766,-186.31900024414062 117.8550033569336,-162.22500610351562"/></g></g><g transform="matrix(0.8399999737739563,0,0,0.8399999737739563,215,327)" opacity="0.07510852848147068" style="display: none;"><g opacity="1" transform="matrix(1,0,0,1,-0.5,-0.5)"><path stroke-linecap="round" stroke-linejoin="round" fill-opacity="0" class="primary" stroke="rgb(8,168,138)" stroke-opacity="1" stroke-width="7" d=" M-117.84500122070312,-162.21099853515625 C-84.75499725341797,-186.3040008544922 -44.02399826049805,-200.5229949951172 0,-200.5229949951172 C0,-200.5229949951172 0,-200.5229949951172 0,-200.5229949951172 C44.02399826049805,-200.5229949951172 84.75499725341797,-186.3040008544922 117.84500122070312,-162.21099853515625"/></g></g><g transform="matrix(0.8399999737739563,0,0,0.8399999737739563,215,327)" opacity="0.07611550189597693" style="display: none;"><g opacity="1" transform="matrix(1,0,0,1,-0.5,-0.5)"><path stroke-linecap="round" stroke-linejoin="round" fill-opacity="0" class="primary" stroke="rgb(8,168,138)" stroke-opacity="1" stroke-width="7" d=" M-117.83899688720703,-162.20199584960938 C-84.75,-186.29299926757812 -44.02199935913086,-200.51199340820312 0,-200.51199340820312 C0,-200.51199340820312 0,-200.51199340820312 0,-200.51199340820312 C44.02199935913086,-200.51199340820312 84.75,-186.29299926757812 117.83899688720703,-162.20199584960938"/></g></g><g transform="matrix(0.8399999737739563,0,0,0.8399999737739563,215,327)" opacity="1" style="display: block;"><g opacity="1" transform="matrix(1,0,0,1,-0.5,-0.5)"><path stroke-linecap="round" stroke-linejoin="round" fill-opacity="0" class="primary" stroke="rgb(8,168,138)" stroke-opacity="1" stroke-width="10" d=" M-0.597000002861023,-9.482000350952148 C-0.39899998903274536,-9.494000434875488 -0.20000000298023224,-9.5 0,-9.5"/></g></g><g transform="matrix(0.8399999737739563,0,0,0.8399999737739563,215,327)" opacity="1" style="display: block;"><g opacity="1" transform="matrix(1,0,0,1,-0.5,-0.5)"><path stroke-linecap="round" stroke-linejoin="round" fill-opacity="0" class="primary" stroke="rgb(8,168,138)" stroke-opacity="1" stroke-width="7" d=" M-33.20500183105469,-45.70500183105469 C-23.881000518798828,-52.49399948120117 -12.404000282287598,-56.5 0,-56.5 C0,-56.5 0,-56.5 0,-56.5 C12.404000282287598,-56.5 23.881000518798828,-52.49399948120117 33.20500183105469,-45.70500183105469"/></g></g><g transform="matrix(0.8399999737739563,0,0,0.8399999737739563,215,327)" opacity="1" style="display: block;"><g opacity="1" transform="matrix(1,0,0,1,-0.5,-0.5)"><path stroke-linecap="round" stroke-linejoin="round" fill-opacity="0" class="primary" stroke="rgb(8,168,138)" stroke-opacity="1" stroke-width="7" d=" M-60.82600021362305,-83.7249984741211 C-43.74599838256836,-96.16100311279297 -22.722999572753906,-103.5 0,-103.5 C0,-103.5 0,-103.5 0,-103.5 C22.722999572753906,-103.5 43.74599838256836,-96.16100311279297 60.82600021362305,-83.7249984741211"/></g></g><g transform="matrix(0.8399999737739563,0,0,0.8399999737739563,215,327)" opacity="1" style="display: block;"><g opacity="1" transform="matrix(1,0,0,1,-0.5,-0.5)"><path stroke-linecap="round" stroke-linejoin="round" fill-opacity="0" class="primary" stroke="rgb(8,168,138)" stroke-opacity="1" stroke-width="7" d=" M-88.74099731445312,-122.1500015258789 C-63.823001861572266,-140.29200744628906 -33.152000427246094,-151 0,-151 C0,-151 0,-151 0,-151 C33.152000427246094,-151 63.823001861572266,-140.29200744628906 88.74099731445312,-122.1500015258789"/></g></g></g></g></svg>